<svg xmlns="http://www.w3.org/2000/svg" viewBox="0 0 24 24"><defs><style>.a{fill:none;stroke:#000;stroke-linecap:round;stroke-linejoin:round;}</style></defs><title>computer-chip</title><rect class="a" x="4.5" y="4.5" width="15" height="15" rx="1" ry="1"/><line class="a" x1="12" y1="0.5" x2="12" y2="4.5"/><line class="a" x1="7.5" y1="0.5" x2="7.5" y2="4.5"/><line class="a" x1="16.5" y1="0.5" x2="16.5" y2="4.5"/><line class="a" x1="0.5" y1="12" x2="4.5" y2="12"/><line class="a" x1="0.5" y1="16.5" x2="4.5" y2="16.5"/><line class="a" x1="0.5" y1="7.5" x2="4.5" y2="7.5"/><line class="a" x1="12" y1="23.5" x2="12" y2="19.5"/><line class="a" x1="16.5" y1="23.5" x2="16.5" y2="19.5"/><line class="a" x1="7.5" y1="23.5" x2="7.5" y2="19.5"/><line class="a" x1="23.5" y1="12" x2="19.5" y2="12"/><line class="a" x1="23.5" y1="7.5" x2="19.5" y2="7.5"/><line class="a" x1="23.5" y1="16.5" x2="19.5" y2="16.5"/><rect class="a" x="6.5" y="6.5" width="11" height="11" rx="2" ry="2"/><line class="a" x1="9.5" y1="9.5" x2="13.5" y2="9.5"/><line class="a" x1="9.5" y1="11.5" x2="11.5" y2="11.5"/><line class="a" x1="12.5" y1="14.5" x2="14.5" y2="14.5"/></svg>